<svg width="59" height="48" viewBox="0 0 59 48" fill="none" xmlns="http://www.w3.org/2000/svg">
<path d="M52.9647 18.5029C52.9647 18.5029 57.1069 19.2347 58.5791 20.5561L53.1387 20.8164L52.2104 19.1856L52.9647 18.5029Z" fill="#FFCC00"/>
<path d="M6.22925 42.7512C6.22925 42.7512 7.47408 45.1187 10.8802 43.222C14.2877 41.3239 20.4347 36.1024 20.4347 36.1024L19.7098 35.2021C19.7098 35.2021 8.52594 41.9512 6.22925 42.7512Z" fill="#FF7F00"/>
<path d="M8.03339 44.4136C8.03339 44.4136 9.96099 46.598 13.1278 44.323C16.2967 42.0488 21.387 36.1846 21.387 36.1846L20.5639 35.3727C20.5639 35.3727 10.2241 43.3561 8.03339 44.4136Z" fill="#FF7F00"/>
<path d="M10.0087 46.4274C10.0087 46.4274 11.8886 48.2666 14.7852 45.6549C17.6812 43.0431 22.3665 36.767 22.3665 36.767L21.4592 36.0519C21.4592 36.0519 12.0682 45.1342 10.0087 46.4274Z" fill="#FF7F00"/>
<path d="M12.8955 47.5145C12.8955 47.5145 15.228 49.2133 17.7682 46.2556C20.3098 43.2972 23.9257 36.3621 23.9257 36.3621L22.9342 35.7678C22.9342 35.7678 14.774 45.9693 12.8955 47.5145Z" fill="#FF7F00"/>
<path d="M22.596 5.61382C22.9791 5.94151 20.9182 4.8363 20.3771 4.37529C20.3771 4.37529 18.8137 7.29581 22.1707 9.28166C22.584 9.52656 20.8101 8.78133 20.2719 8.43399C20.2719 8.43399 19.3786 10.81 21.5665 12.4281C21.4873 12.6555 20.7322 15.047 23.1286 16.583C22.9847 17.4482 23.003 19.1891 25.0162 20.3533C25.1305 21.3504 25.6975 22.5995 27.5943 23.4085C27.7893 23.4899 27.9963 23.5713 28.2146 23.6506C32.4648 28.1521 36.6414 29.004 39.2244 27.0708C42.2088 24.8358 44.3589 20.4136 37.7873 14.3579C32.1856 9.19463 25.687 4.06794 24.7537 3.33677C23.3138 2.0856 22.1384 1.01269 21.6929 0.46816C21.6929 0.46816 19.6404 3.06729 22.596 5.61382Z" fill="#FF7F00"/>
<path d="M35.7945 21.662C29.2896 27.9493 18.5885 35.6064 18.5885 35.6064C18.5885 35.6064 30.458 42.3688 39.1704 39.9325C47.8836 37.4961 50.0126 27.4504 53.4271 20.5112C53.0833 17.0988 51.5002 14.2723 48.186 14.2715C45.3883 14.2715 41.3569 16.2855 35.7945 21.662Z" fill="#FF7F00"/>
<path d="M7.53732 17.2888C5.14097 17.3274 3.1432 17.3078 2.26886 17.1724C2.26886 17.1724 2.52921 21.3258 7.42715 21.2283C8.06291 21.2149 5.20553 21.9096 4.31505 21.9293C4.31505 21.9293 5.30096 25.9725 10.1049 25.0168C10.6978 24.8989 8.41376 25.6883 7.61801 25.8146C7.61801 25.8146 8.77514 28.7878 12.177 28.4671C12.2942 28.745 13.5931 31.615 17.122 31.0431C17.7142 31.9715 19.1892 33.5854 22.0494 32.9847C22.9911 33.8226 24.5679 34.5159 27.0218 33.6801C27.2723 33.5952 27.5347 33.4963 27.8042 33.3882C35.5525 34.0359 40.1746 31.3301 40.969 27.3563C41.8882 22.765 40.1915 16.8271 28.9676 16.6707C28.094 16.6587 27.214 16.6531 26.3348 16.6531C17.5781 16.6531 8.88741 17.2005 7.53732 17.2888Z" fill="#FF7F00" stroke="white" stroke-width="4.05029"/>
<path d="M48.3766 18.0466C48.4962 18.4755 48.9386 18.7278 49.3678 18.607C49.7969 18.4875 50.0494 18.0426 49.9285 17.6137C49.8076 17.1849 49.3625 16.9326 48.9333 17.0534C48.5055 17.1729 48.2557 17.6164 48.3766 18.0466Z" fill="#00007F"/>
</svg>
