<?xml version="1.0" encoding="UTF-8"?>
<svg width="744.09448819" height="1052.3622047" xmlns="http://www.w3.org/2000/svg" xmlns:svg="http://www.w3.org/2000/svg">
 <title>Green Bird</title>
 <defs>
  <clipPath id="clipPath31355" clipPathUnits="userSpaceOnUse">
   <path id="path31357" d="m0,504l504,0l0,-504l-504,0l0,504z"/>
  </clipPath>
 </defs>
 <metadata id="metadata13150">image/svg+xml</metadata>
 <g>
  <title>Layer 1</title>
  <g fill="#ffcc00" transform="matrix(4.05029,0,0,-4.05029,313.886,589.565) " id="g20316">
   <path fill="#ffcc00" fill-rule="nonzero" id="path20318" d="m40.49089,41.72536c0,0 5.903,-1.04299 8.001,-2.92599l-7.75301,-0.37101l-1.32299,2.324l1.075,0.973z"/>
  </g>
  <g fill="#5fbcd3" id="g20168" transform="matrix(4.05029,0,0,-4.05029,-214.847,2493.93) ">
   <g fill="#5fbcd3" id="g20170">
    <g fill="#5fbcd3" id="g20176">
     <g fill="#5fbcd3" id="g20178">
      <path fill="#ff7f00" d="m104.43088,477.349484c0,0 1.77399,-3.374 6.628,-0.67099l0,0c4.856,2.70498 13.61599,10.14599 13.61599,10.14599l0,0l-1.03299,1.28299c0,0 -15.93801,-9.61801 -19.211,-10.75799" id="path20186"/>
     </g>
    </g>
   </g>
  </g>
  <g fill="#2c89a0" id="g20188" transform="matrix(4.05029,0,0,-4.05029,-214.847,2493.93) ">
   <g fill="#2c89a0" id="g20190">
    <g fill="#2c89a0" id="g20196">
     <g fill="#2c89a0" id="g20198">
      <path fill="#ff7f00" d="m107.00188,474.98038c0,0 2.747,-3.11301 7.26,0.129l0,0c4.516,3.24099 11.77,11.59799 11.77,11.59799l0,0l-1.17301,1.15701c0,0 -14.73499,-11.37701 -17.85699,-12.884" id="path20206"/>
     </g>
    </g>
   </g>
  </g>
  <g fill="#006680" id="g20208" transform="matrix(4.05029,0,0,-4.05029,-214.847,2493.93) ">
   <g fill="#006680" id="g20210">
    <g fill="#006680" id="g20216">
     <g fill="#006680" id="g20218">
      <path fill="#ff7f00" d="m109.81687,472.11038c0,0 2.679,-2.621 6.80701,1.10102l0,0c4.127,3.72198 10.80399,12.66598 10.80399,12.66598l0,0l-1.293,1.01901c0,0 -13.38299,-12.94302 -16.318,-14.78601" id="path20226"/>
     </g>
    </g>
   </g>
  </g>
  <g fill="#008080" id="g20228" transform="matrix(4.05029,0,0,-4.05029,-214.847,2493.93) ">
   <g fill="#008080" id="g20230">
    <g fill="#008080" id="g20236">
     <g fill="#008080" id="g20238">
      <path fill="#ff7f00" d="m113.93088,470.56137c0,0 3.32399,-2.42099 6.944,1.79401l0,0c3.62199,4.216 8.77499,14.099 8.77499,14.099l0,0l-1.41299,0.84698c0,0 -11.62901,-14.53799 -14.306,-16.73999" id="path20246"/>
     </g>
    </g>
   </g>
  </g>
  <g fill="#008080" id="g20248" transform="matrix(4.05029,0,0,-4.05029,-214.847,2493.93) ">
   <g fill="#008080" id="g20250">
    <g fill="#008080" id="g20256">
     <g fill="#008080" id="g20258">
      <path fill="#ff7f00" d="m127.75488,530.27338c0.54599,-0.46698 -2.391,1.10803 -3.16201,1.76501l0,0c0,0 -2.22799,-4.16199 2.556,-6.992l0,0c0.58901,-0.349 -1.93899,0.71301 -2.70599,1.208l0,0c0,0 -1.273,-3.38598 1.84499,-5.69201l0,0c-0.113,-0.32398 -1.18899,-3.73206 2.226,-5.92102l0,0c-0.205,-1.23297 -0.17899,-3.71399 2.69,-5.37299l0,0c0.16301,-1.42099 0.971,-3.20099 3.674,-4.354l0,0c0.27801,-0.116 0.57301,-0.232 0.884,-0.345l0,0c6.05701,-6.41501 12.009,-7.629 15.69,-4.874l0,0c4.25301,3.185 7.317,9.487 -2.04799,18.11701l0,0c-7.983,7.35803 -17.244,14.664 -18.574,15.70599l0,0c-2.052,1.78302 -3.72701,3.31201 -4.36201,4.08801l0,0c0,0 -2.92499,-3.70397 1.28701,-7.333" id="path20266"/>
     </g>
    </g>
   </g>
  </g>
  <g fill="#00ccff" id="g20268" transform="matrix(4.05029,0,0,-4.05029,-214.847,2493.93) ">
   <g fill="#00ccff" id="g20270">
    <g fill="#00ccff" id="g20276">
     <g fill="#00ccff" id="g20278">
      <path fill="#ff7f00" d="m146.56387,507.40338c-9.26999,-8.95999 -24.51999,-19.87201 -24.51999,-19.87201l0,0c0,0 16.915,-9.63699 29.331,-6.16498l0,0c12.41699,3.47199 15.45099,17.788 20.31701,27.67701l0,0c-0.49,4.86297 -2.746,8.89099 -7.46901,8.89203l0,0c-3.98701,0 -9.73201,-2.87006 -17.65901,-10.53205" id="path20286"/>
     </g>
    </g>
   </g>
  </g>
  <g fill="#008080" id="g20288" transform="matrix(4.05029,0,0,-4.05029,-214.847,2493.93) ">
   <g fill="#008080" id="g20290">
    <g fill="#008080" id="g20296">
     <g fill="#008080" id="g20298">
      <path fill="#ff7f00" d="m106.294984,513.63538c-3.415,-0.055 -6.262,-0.02704 -7.50801,0.16595l0,0c0,0 0.37101,-5.91894 7.351,-5.77997l0,0c0.90601,0.01901 -3.16599,-0.97097 -4.435,-0.99899l0,0c0,0 1.405,-5.76199 8.251,-4.39999l0,0c0.845,0.168 -2.40999,-0.957 -3.544,-1.137l0,0c0,0 1.64901,-4.237 6.49701,-3.78l0,0c0.167,-0.39599 2.018,-4.48602 7.04699,-3.67102l0,0c0.84401,-1.32299 2.946,-3.62298 7.02201,-2.76699l0,0c1.342,-1.194 3.58899,-2.18201 7.08599,-0.991l0,0c0.35701,0.121 0.731,0.26199 1.115,0.41601l0,0c11.04201,-0.923 17.629,2.93299 18.761,8.59598l0,0c1.31,6.543 -1.108,15.00498 -17.10299,15.228l0,0c-1.245,0.01703 -2.49901,0.02502 -3.752,0.02502l0,0c-12.479,0 -24.86401,-0.78003 -26.788,-0.906" id="path20306" stroke="#ffffff"/>
     </g>
    </g>
   </g>
  </g>
  <g fill="#241f1c" id="g20324" transform="matrix(7.669,0,0,-7.6643,138.836,735.727) ">
   <path fill="#00007f" fill-rule="nonzero" d="m40.75724,41.46442c0.09,-0.32299 0.423,-0.513 0.74599,-0.422c0.323,0.09 0.513,0.42499 0.42201,0.748c-0.091,0.32299 -0.42601,0.513 -0.74901,0.42201c-0.322,-0.09 -0.51,-0.424 -0.41899,-0.74801" id="path20326"/>
  </g>
 </g>
</svg>